<svg width="65" height="10" viewBox="0 0 49 65" fill="none" xmlns="http://www.w3.org/2000/svg">
<path d="M7.94467 36.5387L0.103966 58.7718L7.99247 58.6951L17.7211 36.5387H7.94467Z" fill="#80AAFF"/>
<path d="M17.7207 36.5387L11.5985 59.9338L17.7644 65.0003L24.4997 45.2937V36.5387H17.7207Z" fill="#80AAFF"/>
<path d="M15.5919 36.5387L7.99283 58.6951L10.0671 58.675L11.5992 59.9338L19.6232 36.5387H15.5919Z" fill="#EAF1FF"/>
<path d="M41.056 36.5387L48.8967 58.7718L41.0082 58.6951L31.2796 36.5387H41.056Z" fill="#6680FF"/>
<path d="M31.2795 36.5387L37.4017 59.9338L31.2358 65.0003L24.5005 45.2937V36.5387H31.2795Z" fill="#6680FF"/>
<path d="M33.4086 36.5387L41.0077 58.6951L38.9334 58.675L37.4013 59.9338L29.3773 36.5387H33.4086Z" fill="#B3CCFF"/>
<path d="M24.4993 1.90625L23.1435 23.0483L24.4993 43.3854C35.9535 43.3854 45.2389 34.1 45.2389 22.6459C45.2389 11.1917 35.9535 1.90625 24.4993 1.90625Z" fill="#EAF1FF"/>
<path d="M3.7598 22.6459C3.7598 34.1 13.0452 43.3854 24.4994 43.3854V1.90625C13.0452 1.90625 3.7598 11.1917 3.7598 22.6459Z" fill="#F9F9F9"/>
<path d="M47.1455 22.6462C47.1455 10.159 36.9864 0 24.4993 0L23.1434 1.35585L24.4993 3.8132C34.8838 3.8132 43.3323 12.2616 43.3323 22.6462C43.3323 33.0307 34.8838 41.4791 24.4993 41.4791L23.1434 43.3857L24.4993 45.2923C36.9864 45.2923 47.1455 35.1333 47.1455 22.6462Z" fill="#FDAE02"/>
<path d="M24.4997 41.4791C14.1152 41.4791 5.66675 33.0307 5.66675 22.6462C5.66675 12.2616 14.1152 3.8132 24.4997 3.8132V0C12.0126 0 1.85355 10.159 1.85355 22.6462C1.85355 35.1333 12.0126 45.2923 24.4997 45.2923V41.4791Z" fill="#FDCB02"/>
<path d="M35.8975 15.0947L29.9611 17.0357L24.5002 12.4161L23.1445 21.6925L24.5002 31.2679H35.8975V15.0947Z" fill="#FD9002"/>
<path d="M24.5002 12.4161L19.0395 17.0357L13.1031 15.0947V31.2679H24.5002V12.4161Z" fill="#FDAE02"/>
</svg>
